<svg xmlns="http://www.w3.org/2000/svg" xmlns:xlink="http://www.w3.org/1999/xlink" width="500" zoomAndPan="magnify" viewBox="0 0 375 374.999991" height="500" preserveAspectRatio="xMidYMid meet" version="1.0"><defs><clipPath id="c15fa7a2f6"><path d="M 0 0 L 117.140625 0 L 117.140625 118 L 0 118 Z M 0 0 " clip-rule="nonzero"/></clipPath><clipPath id="736bb6e344"><path d="M 17.25 0 L 99.890625 0 C 109.417969 0 117.140625 7.722656 117.140625 17.25 L 117.140625 100.359375 C 117.140625 109.886719 109.417969 117.609375 99.890625 117.609375 L 17.25 117.609375 C 7.722656 117.609375 0 109.886719 0 100.359375 L 0 17.25 C 0 7.722656 7.722656 0 17.25 0 Z M 17.25 0 " clip-rule="nonzero"/></clipPath><clipPath id="6488343c85"><path d="M 0 128.695312 L 117.140625 128.695312 L 117.140625 246.75 L 0 246.75 Z M 0 128.695312 " clip-rule="nonzero"/></clipPath><clipPath id="4580a13a5d"><path d="M 17.25 128.695312 L 99.890625 128.695312 C 109.417969 128.695312 117.140625 136.417969 117.140625 145.945312 L 117.140625 229.054688 C 117.140625 238.582031 109.417969 246.304688 99.890625 246.304688 L 17.25 246.304688 C 7.722656 246.304688 0 238.582031 0 229.054688 L 0 145.945312 C 0 136.417969 7.722656 128.695312 17.25 128.695312 Z M 17.25 128.695312 " clip-rule="nonzero"/></clipPath><clipPath id="0875563074"><path d="M 0 257.390625 L 117.140625 257.390625 L 117.140625 375 L 0 375 Z M 0 257.390625 " clip-rule="nonzero"/></clipPath><clipPath id="ad8ba86987"><path d="M 17.25 257.390625 L 99.890625 257.390625 C 109.417969 257.390625 117.140625 265.113281 117.140625 274.640625 L 117.140625 357.75 C 117.140625 367.277344 109.417969 375 99.890625 375 L 17.25 375 C 7.722656 375 0 367.277344 0 357.75 L 0 274.640625 C 0 265.113281 7.722656 257.390625 17.25 257.390625 Z M 17.25 257.390625 " clip-rule="nonzero"/></clipPath><clipPath id="0690d21341"><path d="M 128.929688 128.695312 L 246.070312 128.695312 L 246.070312 246.75 L 128.929688 246.75 Z M 128.929688 128.695312 " clip-rule="nonzero"/></clipPath><clipPath id="fb4be4e201"><path d="M 146.179688 128.695312 L 228.820312 128.695312 C 238.347656 128.695312 246.070312 136.417969 246.070312 145.945312 L 246.070312 229.054688 C 246.070312 238.582031 238.347656 246.304688 228.820312 246.304688 L 146.179688 246.304688 C 136.652344 246.304688 128.929688 238.582031 128.929688 229.054688 L 128.929688 145.945312 C 128.929688 136.417969 136.652344 128.695312 146.179688 128.695312 Z M 146.179688 128.695312 " clip-rule="nonzero"/></clipPath><clipPath id="66172022b7"><path d="M 128.929688 257.390625 L 246.070312 257.390625 L 246.070312 375 L 128.929688 375 Z M 128.929688 257.390625 " clip-rule="nonzero"/></clipPath><clipPath id="9bc5649118"><path d="M 146.179688 257.390625 L 228.820312 257.390625 C 238.347656 257.390625 246.070312 265.113281 246.070312 274.640625 L 246.070312 357.75 C 246.070312 367.277344 238.347656 375 228.820312 375 L 146.179688 375 C 136.652344 375 128.929688 367.277344 128.929688 357.75 L 128.929688 274.640625 C 128.929688 265.113281 136.652344 257.390625 146.179688 257.390625 Z M 146.179688 257.390625 " clip-rule="nonzero"/></clipPath><clipPath id="fd5672e08c"><path d="M 257.859375 257.390625 L 375 257.390625 L 375 375 L 257.859375 375 Z M 257.859375 257.390625 " clip-rule="nonzero"/></clipPath><clipPath id="f1e14560a1"><path d="M 275.109375 257.390625 L 357.75 257.390625 C 367.277344 257.390625 375 265.113281 375 274.640625 L 375 357.75 C 375 367.277344 367.277344 375 357.75 375 L 275.109375 375 C 265.582031 375 257.859375 367.277344 257.859375 357.75 L 257.859375 274.640625 C 257.859375 265.113281 265.582031 257.390625 275.109375 257.390625 Z M 275.109375 257.390625 " clip-rule="nonzero"/></clipPath></defs><g clip-path="url(#c15fa7a2f6)"><g clip-path="url(#736bb6e344)"><path fill="#ffffff" d="M 0 0 L 117.140625 0 L 117.140625 117.597656 L 0 117.597656 Z M 0 0 " fill-opacity="1" fill-rule="nonzero"/></g></g><g clip-path="url(#6488343c85)"><g clip-path="url(#4580a13a5d)"><path fill="#ffffff" d="M 0 128.695312 L 117.140625 128.695312 L 117.140625 246.292969 L 0 246.292969 Z M 0 128.695312 " fill-opacity="1" fill-rule="nonzero"/></g></g><g clip-path="url(#0875563074)"><g clip-path="url(#ad8ba86987)"><path fill="#ffffff" d="M 0 257.390625 L 117.140625 257.390625 L 117.140625 374.988281 L 0 374.988281 Z M 0 257.390625 " fill-opacity="1" fill-rule="nonzero"/></g></g><g clip-path="url(#0690d21341)"><g clip-path="url(#fb4be4e201)"><path fill="#ffffff" d="M 128.929688 128.695312 L 246.070312 128.695312 L 246.070312 246.292969 L 128.929688 246.292969 Z M 128.929688 128.695312 " fill-opacity="1" fill-rule="nonzero"/></g></g><g clip-path="url(#66172022b7)"><g clip-path="url(#9bc5649118)"><path fill="#ffffff" d="M 128.929688 257.390625 L 246.070312 257.390625 L 246.070312 374.988281 L 128.929688 374.988281 Z M 128.929688 257.390625 " fill-opacity="1" fill-rule="nonzero"/></g></g><g clip-path="url(#fd5672e08c)"><g clip-path="url(#f1e14560a1)"><path fill="#ffffff" d="M 257.859375 257.390625 L 375 257.390625 L 375 374.988281 L 257.859375 374.988281 Z M 257.859375 257.390625 " fill-opacity="1" fill-rule="nonzero"/></g></g></svg>