<svg xmlns="http://www.w3.org/2000/svg" xmlns:xlink="http://www.w3.org/1999/xlink" width="6912" zoomAndPan="magnify" viewBox="0 0 5184 863.999991" height="1152" preserveAspectRatio="xMidYMid meet" version="1.0"><defs><g/><linearGradient x1="0" gradientTransform="matrix(0.75, 0, 0, 0.75, 0.0000261, 0.00002)" y1="576" x2="6911.999712" gradientUnits="userSpaceOnUse" y2="576" id="566d5481ec"><stop stop-opacity="1" stop-color="rgb(32.199097%, 44.299316%, 100%)" offset="0"/><stop stop-opacity="1" stop-color="rgb(32.463074%, 44.287109%, 99.884033%)" offset="0.00390625"/><stop stop-opacity="1" stop-color="rgb(32.728577%, 44.274902%, 99.769592%)" offset="0.0078125"/><stop stop-opacity="1" stop-color="rgb(32.992554%, 44.262695%, 99.653625%)" offset="0.0117188"/><stop stop-opacity="1" stop-color="rgb(33.258057%, 44.250488%, 99.539185%)" offset="0.015625"/><stop stop-opacity="1" stop-color="rgb(33.522034%, 44.238281%, 99.424744%)" offset="0.0195312"/><stop stop-opacity="1" stop-color="rgb(33.787537%, 44.226074%, 99.310303%)" offset="0.0234375"/><stop stop-opacity="1" stop-color="rgb(34.05304%, 44.213867%, 99.194336%)" offset="0.0273438"/><stop stop-opacity="1" stop-color="rgb(34.318542%, 44.20166%, 99.079895%)" offset="0.03125"/><stop stop-opacity="1" stop-color="rgb(34.58252%, 44.189453%, 98.965454%)" offset="0.0351562"/><stop stop-opacity="1" stop-color="rgb(34.848022%, 44.178772%, 98.851013%)" offset="0.0390625"/><stop stop-opacity="1" stop-color="rgb(35.112%, 44.166565%, 98.735046%)" offset="0.0429688"/><stop stop-opacity="1" stop-color="rgb(35.377502%, 44.154358%, 98.620605%)" offset="0.046875"/><stop stop-opacity="1" stop-color="rgb(35.641479%, 44.142151%, 98.506165%)" offset="0.0507812"/><stop stop-opacity="1" stop-color="rgb(35.906982%, 44.129944%, 98.391724%)" offset="0.0546875"/><stop stop-opacity="1" stop-color="rgb(36.170959%, 44.117737%, 98.275757%)" offset="0.0585938"/><stop stop-opacity="1" stop-color="rgb(36.436462%, 44.10553%, 98.161316%)" offset="0.0625"/><stop stop-opacity="1" stop-color="rgb(36.700439%, 44.093323%, 98.046875%)" offset="0.0664062"/><stop stop-opacity="1" stop-color="rgb(36.965942%, 44.081116%, 97.932434%)" offset="0.0703125"/><stop stop-opacity="1" stop-color="rgb(37.229919%, 44.068909%, 97.816467%)" offset="0.0742188"/><stop stop-opacity="1" stop-color="rgb(37.495422%, 44.056702%, 97.702026%)" offset="0.078125"/><stop stop-opacity="1" stop-color="rgb(37.760925%, 44.044495%, 97.587585%)" offset="0.0820312"/><stop stop-opacity="1" stop-color="rgb(38.026428%, 44.032288%, 97.473145%)" offset="0.0859375"/><stop stop-opacity="1" stop-color="rgb(38.290405%, 44.020081%, 97.357178%)" offset="0.0898438"/><stop stop-opacity="1" stop-color="rgb(38.555908%, 44.007874%, 97.242737%)" offset="0.09375"/><stop stop-opacity="1" stop-color="rgb(38.819885%, 43.995667%, 97.128296%)" offset="0.0976562"/><stop stop-opacity="1" stop-color="rgb(39.085388%, 43.984985%, 97.013855%)" offset="0.101562"/><stop stop-opacity="1" stop-color="rgb(39.349365%, 43.972778%, 96.897888%)" offset="0.105469"/><stop stop-opacity="1" stop-color="rgb(39.614868%, 43.960571%, 96.783447%)" offset="0.109375"/><stop stop-opacity="1" stop-color="rgb(39.878845%, 43.948364%, 96.669006%)" offset="0.113281"/><stop stop-opacity="1" stop-color="rgb(40.144348%, 43.936157%, 96.554565%)" offset="0.117188"/><stop stop-opacity="1" stop-color="rgb(40.408325%, 43.92395%, 96.438599%)" offset="0.121094"/><stop stop-opacity="1" stop-color="rgb(40.673828%, 43.911743%, 96.324158%)" offset="0.125"/><stop stop-opacity="1" stop-color="rgb(40.937805%, 43.899536%, 96.209717%)" offset="0.128906"/><stop stop-opacity="1" stop-color="rgb(41.203308%, 43.887329%, 96.095276%)" offset="0.132812"/><stop stop-opacity="1" stop-color="rgb(41.468811%, 43.875122%, 95.979309%)" offset="0.136719"/><stop stop-opacity="1" stop-color="rgb(41.734314%, 43.862915%, 95.864868%)" offset="0.140625"/><stop stop-opacity="1" stop-color="rgb(41.998291%, 43.850708%, 95.748901%)" offset="0.144531"/><stop stop-opacity="1" stop-color="rgb(42.263794%, 43.838501%, 95.63446%)" offset="0.148438"/><stop stop-opacity="1" stop-color="rgb(42.527771%, 43.826294%, 95.52002%)" offset="0.152344"/><stop stop-opacity="1" stop-color="rgb(42.793274%, 43.815613%, 95.405579%)" offset="0.15625"/><stop stop-opacity="1" stop-color="rgb(43.057251%, 43.803406%, 95.289612%)" offset="0.160156"/><stop stop-opacity="1" stop-color="rgb(43.322754%, 43.791199%, 95.175171%)" offset="0.164062"/><stop stop-opacity="1" stop-color="rgb(43.586731%, 43.778992%, 95.06073%)" offset="0.167969"/><stop stop-opacity="1" stop-color="rgb(43.852234%, 43.766785%, 94.946289%)" offset="0.171875"/><stop stop-opacity="1" stop-color="rgb(44.116211%, 43.754578%, 94.830322%)" offset="0.175781"/><stop stop-opacity="1" stop-color="rgb(44.381714%, 43.742371%, 94.715881%)" offset="0.179688"/><stop stop-opacity="1" stop-color="rgb(44.645691%, 43.730164%, 94.60144%)" offset="0.183594"/><stop stop-opacity="1" stop-color="rgb(44.911194%, 43.717957%, 94.487%)" offset="0.1875"/><stop stop-opacity="1" stop-color="rgb(45.175171%, 43.70575%, 94.371033%)" offset="0.191406"/><stop stop-opacity="1" stop-color="rgb(45.440674%, 43.693542%, 94.256592%)" offset="0.195312"/><stop stop-opacity="1" stop-color="rgb(45.706177%, 43.681335%, 94.142151%)" offset="0.199219"/><stop stop-opacity="1" stop-color="rgb(45.97168%, 43.669128%, 94.02771%)" offset="0.203125"/><stop stop-opacity="1" stop-color="rgb(46.235657%, 43.656921%, 93.911743%)" offset="0.207031"/><stop stop-opacity="1" stop-color="rgb(46.50116%, 43.644714%, 93.797302%)" offset="0.210938"/><stop stop-opacity="1" stop-color="rgb(46.765137%, 43.632507%, 93.682861%)" offset="0.214844"/><stop stop-opacity="1" stop-color="rgb(47.03064%, 43.621826%, 93.56842%)" offset="0.21875"/><stop stop-opacity="1" stop-color="rgb(47.294617%, 43.609619%, 93.452454%)" offset="0.222656"/><stop stop-opacity="1" stop-color="rgb(47.56012%, 43.597412%, 93.338013%)" offset="0.226562"/><stop stop-opacity="1" stop-color="rgb(47.824097%, 43.585205%, 93.223572%)" offset="0.230469"/><stop stop-opacity="1" stop-color="rgb(48.0896%, 43.572998%, 93.109131%)" offset="0.234375"/><stop stop-opacity="1" stop-color="rgb(48.353577%, 43.560791%, 92.993164%)" offset="0.238281"/><stop stop-opacity="1" stop-color="rgb(48.61908%, 43.548584%, 92.878723%)" offset="0.242188"/><stop stop-opacity="1" stop-color="rgb(48.883057%, 43.536377%, 92.764282%)" offset="0.246094"/><stop stop-opacity="1" stop-color="rgb(49.14856%, 43.52417%, 92.649841%)" offset="0.25"/><stop stop-opacity="1" stop-color="rgb(49.414062%, 43.511963%, 92.533875%)" offset="0.253906"/><stop stop-opacity="1" stop-color="rgb(49.679565%, 43.499756%, 92.419434%)" offset="0.257812"/><stop stop-opacity="1" stop-color="rgb(49.943542%, 43.487549%, 92.304993%)" offset="0.261719"/><stop stop-opacity="1" stop-color="rgb(50.209045%, 43.475342%, 92.190552%)" offset="0.265625"/><stop stop-opacity="1" stop-color="rgb(50.473022%, 43.463135%, 92.074585%)" offset="0.269531"/><stop stop-opacity="1" stop-color="rgb(50.738525%, 43.450928%, 91.960144%)" offset="0.273438"/><stop stop-opacity="1" stop-color="rgb(51.002502%, 43.438721%, 91.844177%)" offset="0.277344"/><stop stop-opacity="1" stop-color="rgb(51.268005%, 43.42804%, 91.729736%)" offset="0.28125"/><stop stop-opacity="1" stop-color="rgb(51.531982%, 43.415833%, 91.615295%)" offset="0.285156"/><stop stop-opacity="1" stop-color="rgb(51.797485%, 43.403625%, 91.500854%)" offset="0.289062"/><stop stop-opacity="1" stop-color="rgb(52.061462%, 43.391418%, 91.384888%)" offset="0.292969"/><stop stop-opacity="1" stop-color="rgb(52.326965%, 43.379211%, 91.270447%)" offset="0.296875"/><stop stop-opacity="1" stop-color="rgb(52.590942%, 43.367004%, 91.156006%)" offset="0.300781"/><stop stop-opacity="1" stop-color="rgb(52.856445%, 43.354797%, 91.041565%)" offset="0.304688"/><stop stop-opacity="1" stop-color="rgb(53.121948%, 43.34259%, 90.925598%)" offset="0.308594"/><stop stop-opacity="1" stop-color="rgb(53.387451%, 43.330383%, 90.811157%)" offset="0.3125"/><stop stop-opacity="1" stop-color="rgb(53.651428%, 43.318176%, 90.696716%)" offset="0.316406"/><stop stop-opacity="1" stop-color="rgb(53.916931%, 43.305969%, 90.582275%)" offset="0.320312"/><stop stop-opacity="1" stop-color="rgb(54.180908%, 43.293762%, 90.466309%)" offset="0.324219"/><stop stop-opacity="1" stop-color="rgb(54.446411%, 43.281555%, 90.351868%)" offset="0.328125"/><stop stop-opacity="1" stop-color="rgb(54.710388%, 43.269348%, 90.237427%)" offset="0.332031"/><stop stop-opacity="1" stop-color="rgb(54.975891%, 43.257141%, 90.122986%)" offset="0.335938"/><stop stop-opacity="1" stop-color="rgb(55.239868%, 43.244934%, 90.007019%)" offset="0.339844"/><stop stop-opacity="1" stop-color="rgb(55.505371%, 43.234253%, 89.892578%)" offset="0.34375"/><stop stop-opacity="1" stop-color="rgb(55.769348%, 43.222046%, 89.778137%)" offset="0.347656"/><stop stop-opacity="1" stop-color="rgb(56.034851%, 43.209839%, 89.663696%)" offset="0.351562"/><stop stop-opacity="1" stop-color="rgb(56.298828%, 43.197632%, 89.547729%)" offset="0.355469"/><stop stop-opacity="1" stop-color="rgb(56.564331%, 43.185425%, 89.433289%)" offset="0.359375"/><stop stop-opacity="1" stop-color="rgb(56.828308%, 43.173218%, 89.318848%)" offset="0.363281"/><stop stop-opacity="1" stop-color="rgb(57.093811%, 43.161011%, 89.204407%)" offset="0.367188"/><stop stop-opacity="1" stop-color="rgb(57.359314%, 43.148804%, 89.08844%)" offset="0.371094"/><stop stop-opacity="1" stop-color="rgb(57.624817%, 43.136597%, 88.973999%)" offset="0.375"/><stop stop-opacity="1" stop-color="rgb(57.888794%, 43.12439%, 88.859558%)" offset="0.378906"/><stop stop-opacity="1" stop-color="rgb(58.154297%, 43.112183%, 88.745117%)" offset="0.382812"/><stop stop-opacity="1" stop-color="rgb(58.418274%, 43.099976%, 88.62915%)" offset="0.386719"/><stop stop-opacity="1" stop-color="rgb(58.683777%, 43.087769%, 88.514709%)" offset="0.390625"/><stop stop-opacity="1" stop-color="rgb(58.947754%, 43.075562%, 88.400269%)" offset="0.394531"/><stop stop-opacity="1" stop-color="rgb(59.213257%, 43.063354%, 88.285828%)" offset="0.398438"/><stop stop-opacity="1" stop-color="rgb(59.477234%, 43.051147%, 88.169861%)" offset="0.402344"/><stop stop-opacity="1" stop-color="rgb(59.742737%, 43.040466%, 88.05542%)" offset="0.40625"/><stop stop-opacity="1" stop-color="rgb(60.006714%, 43.028259%, 87.940979%)" offset="0.410156"/><stop stop-opacity="1" stop-color="rgb(60.272217%, 43.016052%, 87.826538%)" offset="0.414062"/><stop stop-opacity="1" stop-color="rgb(60.536194%, 43.003845%, 87.710571%)" offset="0.417969"/><stop stop-opacity="1" stop-color="rgb(60.801697%, 42.991638%, 87.59613%)" offset="0.421875"/><stop stop-opacity="1" stop-color="rgb(61.0672%, 42.979431%, 87.480164%)" offset="0.425781"/><stop stop-opacity="1" stop-color="rgb(61.332703%, 42.967224%, 87.365723%)" offset="0.429688"/><stop stop-opacity="1" stop-color="rgb(61.59668%, 42.955017%, 87.251282%)" offset="0.433594"/><stop stop-opacity="1" stop-color="rgb(61.862183%, 42.94281%, 87.136841%)" offset="0.4375"/><stop stop-opacity="1" stop-color="rgb(62.12616%, 42.930603%, 87.020874%)" offset="0.441406"/><stop stop-opacity="1" stop-color="rgb(62.391663%, 42.918396%, 86.906433%)" offset="0.445312"/><stop stop-opacity="1" stop-color="rgb(62.65564%, 42.906189%, 86.791992%)" offset="0.449219"/><stop stop-opacity="1" stop-color="rgb(62.921143%, 42.893982%, 86.677551%)" offset="0.453125"/><stop stop-opacity="1" stop-color="rgb(63.18512%, 42.881775%, 86.561584%)" offset="0.457031"/><stop stop-opacity="1" stop-color="rgb(63.450623%, 42.871094%, 86.447144%)" offset="0.460938"/><stop stop-opacity="1" stop-color="rgb(63.7146%, 42.858887%, 86.332703%)" offset="0.464844"/><stop stop-opacity="1" stop-color="rgb(63.980103%, 42.84668%, 86.218262%)" offset="0.46875"/><stop stop-opacity="1" stop-color="rgb(64.24408%, 42.834473%, 86.102295%)" offset="0.472656"/><stop stop-opacity="1" stop-color="rgb(64.509583%, 42.822266%, 85.987854%)" offset="0.476562"/><stop stop-opacity="1" stop-color="rgb(64.775085%, 42.810059%, 85.873413%)" offset="0.480469"/><stop stop-opacity="1" stop-color="rgb(65.040588%, 42.797852%, 85.758972%)" offset="0.484375"/><stop stop-opacity="1" stop-color="rgb(65.304565%, 42.785645%, 85.643005%)" offset="0.488281"/><stop stop-opacity="1" stop-color="rgb(65.570068%, 42.773438%, 85.528564%)" offset="0.492188"/><stop stop-opacity="1" stop-color="rgb(65.834045%, 42.76123%, 85.414124%)" offset="0.496094"/><stop stop-opacity="1" stop-color="rgb(66.099548%, 42.749023%, 85.299683%)" offset="0.5"/><stop stop-opacity="1" stop-color="rgb(66.363525%, 42.736816%, 85.183716%)" offset="0.503906"/><stop stop-opacity="1" stop-color="rgb(66.629028%, 42.724609%, 85.069275%)" offset="0.507812"/><stop stop-opacity="1" stop-color="rgb(66.893005%, 42.712402%, 84.954834%)" offset="0.511719"/><stop stop-opacity="1" stop-color="rgb(67.158508%, 42.700195%, 84.840393%)" offset="0.515625"/><stop stop-opacity="1" stop-color="rgb(67.422485%, 42.687988%, 84.724426%)" offset="0.519531"/><stop stop-opacity="1" stop-color="rgb(67.687988%, 42.677307%, 84.609985%)" offset="0.523438"/><stop stop-opacity="1" stop-color="rgb(67.951965%, 42.6651%, 84.495544%)" offset="0.527344"/><stop stop-opacity="1" stop-color="rgb(68.217468%, 42.652893%, 84.381104%)" offset="0.53125"/><stop stop-opacity="1" stop-color="rgb(68.481445%, 42.640686%, 84.265137%)" offset="0.535156"/><stop stop-opacity="1" stop-color="rgb(68.746948%, 42.628479%, 84.150696%)" offset="0.539062"/><stop stop-opacity="1" stop-color="rgb(69.012451%, 42.616272%, 84.036255%)" offset="0.542969"/><stop stop-opacity="1" stop-color="rgb(69.277954%, 42.604065%, 83.921814%)" offset="0.546875"/><stop stop-opacity="1" stop-color="rgb(69.541931%, 42.591858%, 83.805847%)" offset="0.550781"/><stop stop-opacity="1" stop-color="rgb(69.807434%, 42.579651%, 83.691406%)" offset="0.554688"/><stop stop-opacity="1" stop-color="rgb(70.071411%, 42.567444%, 83.575439%)" offset="0.558594"/><stop stop-opacity="1" stop-color="rgb(70.336914%, 42.555237%, 83.460999%)" offset="0.5625"/><stop stop-opacity="1" stop-color="rgb(70.600891%, 42.54303%, 83.346558%)" offset="0.566406"/><stop stop-opacity="1" stop-color="rgb(70.866394%, 42.530823%, 83.232117%)" offset="0.570312"/><stop stop-opacity="1" stop-color="rgb(71.130371%, 42.518616%, 83.11615%)" offset="0.574219"/><stop stop-opacity="1" stop-color="rgb(71.395874%, 42.506409%, 83.001709%)" offset="0.578125"/><stop stop-opacity="1" stop-color="rgb(71.659851%, 42.494202%, 82.887268%)" offset="0.582031"/><stop stop-opacity="1" stop-color="rgb(71.925354%, 42.483521%, 82.772827%)" offset="0.585938"/><stop stop-opacity="1" stop-color="rgb(72.189331%, 42.471313%, 82.65686%)" offset="0.589844"/><stop stop-opacity="1" stop-color="rgb(72.454834%, 42.459106%, 82.542419%)" offset="0.59375"/><stop stop-opacity="1" stop-color="rgb(72.720337%, 42.446899%, 82.427979%)" offset="0.597656"/><stop stop-opacity="1" stop-color="rgb(72.98584%, 42.434692%, 82.313538%)" offset="0.601562"/><stop stop-opacity="1" stop-color="rgb(73.249817%, 42.422485%, 82.197571%)" offset="0.605469"/><stop stop-opacity="1" stop-color="rgb(73.51532%, 42.410278%, 82.08313%)" offset="0.609375"/><stop stop-opacity="1" stop-color="rgb(73.779297%, 42.398071%, 81.968689%)" offset="0.613281"/><stop stop-opacity="1" stop-color="rgb(74.0448%, 42.385864%, 81.854248%)" offset="0.617188"/><stop stop-opacity="1" stop-color="rgb(74.308777%, 42.373657%, 81.738281%)" offset="0.621094"/><stop stop-opacity="1" stop-color="rgb(74.57428%, 42.36145%, 81.62384%)" offset="0.625"/><stop stop-opacity="1" stop-color="rgb(74.838257%, 42.349243%, 81.509399%)" offset="0.628906"/><stop stop-opacity="1" stop-color="rgb(75.10376%, 42.337036%, 81.394958%)" offset="0.632812"/><stop stop-opacity="1" stop-color="rgb(75.367737%, 42.324829%, 81.278992%)" offset="0.636719"/><stop stop-opacity="1" stop-color="rgb(75.63324%, 42.312622%, 81.164551%)" offset="0.640625"/><stop stop-opacity="1" stop-color="rgb(75.897217%, 42.300415%, 81.05011%)" offset="0.644531"/><stop stop-opacity="1" stop-color="rgb(76.16272%, 42.289734%, 80.935669%)" offset="0.648438"/><stop stop-opacity="1" stop-color="rgb(76.428223%, 42.277527%, 80.819702%)" offset="0.652344"/><stop stop-opacity="1" stop-color="rgb(76.693726%, 42.26532%, 80.705261%)" offset="0.65625"/><stop stop-opacity="1" stop-color="rgb(76.957703%, 42.253113%, 80.59082%)" offset="0.660156"/><stop stop-opacity="1" stop-color="rgb(77.223206%, 42.240906%, 80.476379%)" offset="0.664062"/><stop stop-opacity="1" stop-color="rgb(77.487183%, 42.228699%, 80.360413%)" offset="0.667969"/><stop stop-opacity="1" stop-color="rgb(77.752686%, 42.216492%, 80.245972%)" offset="0.671875"/><stop stop-opacity="1" stop-color="rgb(78.016663%, 42.204285%, 80.131531%)" offset="0.675781"/><stop stop-opacity="1" stop-color="rgb(78.282166%, 42.192078%, 80.01709%)" offset="0.679688"/><stop stop-opacity="1" stop-color="rgb(78.546143%, 42.179871%, 79.901123%)" offset="0.683594"/><stop stop-opacity="1" stop-color="rgb(78.811646%, 42.167664%, 79.786682%)" offset="0.6875"/><stop stop-opacity="1" stop-color="rgb(79.075623%, 42.155457%, 79.672241%)" offset="0.691406"/><stop stop-opacity="1" stop-color="rgb(79.341125%, 42.14325%, 79.5578%)" offset="0.695312"/><stop stop-opacity="1" stop-color="rgb(79.605103%, 42.131042%, 79.441833%)" offset="0.699219"/><stop stop-opacity="1" stop-color="rgb(79.870605%, 42.118835%, 79.327393%)" offset="0.703125"/><stop stop-opacity="1" stop-color="rgb(80.134583%, 42.106628%, 79.211426%)" offset="0.707031"/><stop stop-opacity="1" stop-color="rgb(80.400085%, 42.095947%, 79.096985%)" offset="0.710938"/><stop stop-opacity="1" stop-color="rgb(80.665588%, 42.08374%, 78.982544%)" offset="0.714844"/><stop stop-opacity="1" stop-color="rgb(80.931091%, 42.071533%, 78.868103%)" offset="0.71875"/><stop stop-opacity="1" stop-color="rgb(81.195068%, 42.059326%, 78.752136%)" offset="0.722656"/><stop stop-opacity="1" stop-color="rgb(81.460571%, 42.047119%, 78.637695%)" offset="0.726562"/><stop stop-opacity="1" stop-color="rgb(81.724548%, 42.034912%, 78.523254%)" offset="0.730469"/><stop stop-opacity="1" stop-color="rgb(81.990051%, 42.022705%, 78.408813%)" offset="0.734375"/><stop stop-opacity="1" stop-color="rgb(82.254028%, 42.010498%, 78.292847%)" offset="0.738281"/><stop stop-opacity="1" stop-color="rgb(82.519531%, 41.998291%, 78.178406%)" offset="0.742188"/><stop stop-opacity="1" stop-color="rgb(82.783508%, 41.986084%, 78.063965%)" offset="0.746094"/><stop stop-opacity="1" stop-color="rgb(83.049011%, 41.973877%, 77.949524%)" offset="0.75"/><stop stop-opacity="1" stop-color="rgb(83.312988%, 41.96167%, 77.833557%)" offset="0.753906"/><stop stop-opacity="1" stop-color="rgb(83.578491%, 41.949463%, 77.719116%)" offset="0.757812"/><stop stop-opacity="1" stop-color="rgb(83.842468%, 41.937256%, 77.604675%)" offset="0.761719"/><stop stop-opacity="1" stop-color="rgb(84.107971%, 41.925049%, 77.490234%)" offset="0.765625"/><stop stop-opacity="1" stop-color="rgb(84.373474%, 41.912842%, 77.374268%)" offset="0.769531"/><stop stop-opacity="1" stop-color="rgb(84.638977%, 41.902161%, 77.259827%)" offset="0.773438"/><stop stop-opacity="1" stop-color="rgb(84.902954%, 41.889954%, 77.145386%)" offset="0.777344"/><stop stop-opacity="1" stop-color="rgb(85.168457%, 41.877747%, 77.030945%)" offset="0.78125"/><stop stop-opacity="1" stop-color="rgb(85.432434%, 41.86554%, 76.914978%)" offset="0.785156"/><stop stop-opacity="1" stop-color="rgb(85.697937%, 41.853333%, 76.800537%)" offset="0.789062"/><stop stop-opacity="1" stop-color="rgb(85.961914%, 41.841125%, 76.686096%)" offset="0.792969"/><stop stop-opacity="1" stop-color="rgb(86.227417%, 41.828918%, 76.571655%)" offset="0.796875"/><stop stop-opacity="1" stop-color="rgb(86.491394%, 41.816711%, 76.455688%)" offset="0.800781"/><stop stop-opacity="1" stop-color="rgb(86.756897%, 41.804504%, 76.341248%)" offset="0.804688"/><stop stop-opacity="1" stop-color="rgb(87.020874%, 41.792297%, 76.226807%)" offset="0.808594"/><stop stop-opacity="1" stop-color="rgb(87.286377%, 41.78009%, 76.112366%)" offset="0.8125"/><stop stop-opacity="1" stop-color="rgb(87.550354%, 41.767883%, 75.996399%)" offset="0.816406"/><stop stop-opacity="1" stop-color="rgb(87.815857%, 41.755676%, 75.881958%)" offset="0.820312"/><stop stop-opacity="1" stop-color="rgb(88.08136%, 41.743469%, 75.767517%)" offset="0.824219"/><stop stop-opacity="1" stop-color="rgb(88.346863%, 41.732788%, 75.653076%)" offset="0.828125"/><stop stop-opacity="1" stop-color="rgb(88.61084%, 41.720581%, 75.537109%)" offset="0.832031"/><stop stop-opacity="1" stop-color="rgb(88.876343%, 41.708374%, 75.422668%)" offset="0.835938"/><stop stop-opacity="1" stop-color="rgb(89.14032%, 41.696167%, 75.306702%)" offset="0.839844"/><stop stop-opacity="1" stop-color="rgb(89.405823%, 41.68396%, 75.192261%)" offset="0.84375"/><stop stop-opacity="1" stop-color="rgb(89.6698%, 41.671753%, 75.07782%)" offset="0.847656"/><stop stop-opacity="1" stop-color="rgb(89.935303%, 41.659546%, 74.963379%)" offset="0.851562"/><stop stop-opacity="1" stop-color="rgb(90.19928%, 41.647339%, 74.847412%)" offset="0.855469"/><stop stop-opacity="1" stop-color="rgb(90.464783%, 41.635132%, 74.732971%)" offset="0.859375"/><stop stop-opacity="1" stop-color="rgb(90.72876%, 41.622925%, 74.61853%)" offset="0.863281"/><stop stop-opacity="1" stop-color="rgb(90.994263%, 41.610718%, 74.504089%)" offset="0.867188"/><stop stop-opacity="1" stop-color="rgb(91.25824%, 41.598511%, 74.388123%)" offset="0.871094"/><stop stop-opacity="1" stop-color="rgb(91.523743%, 41.586304%, 74.273682%)" offset="0.875"/><stop stop-opacity="1" stop-color="rgb(91.78772%, 41.574097%, 74.159241%)" offset="0.878906"/><stop stop-opacity="1" stop-color="rgb(92.053223%, 41.56189%, 74.0448%)" offset="0.882812"/><stop stop-opacity="1" stop-color="rgb(92.318726%, 41.549683%, 73.928833%)" offset="0.886719"/><stop stop-opacity="1" stop-color="rgb(92.584229%, 41.539001%, 73.814392%)" offset="0.890625"/><stop stop-opacity="1" stop-color="rgb(92.848206%, 41.526794%, 73.699951%)" offset="0.894531"/><stop stop-opacity="1" stop-color="rgb(93.113708%, 41.514587%, 73.58551%)" offset="0.898438"/><stop stop-opacity="1" stop-color="rgb(93.377686%, 41.50238%, 73.469543%)" offset="0.902344"/><stop stop-opacity="1" stop-color="rgb(93.643188%, 41.490173%, 73.355103%)" offset="0.90625"/><stop stop-opacity="1" stop-color="rgb(93.907166%, 41.477966%, 73.240662%)" offset="0.910156"/><stop stop-opacity="1" stop-color="rgb(94.172668%, 41.465759%, 73.126221%)" offset="0.914062"/><stop stop-opacity="1" stop-color="rgb(94.436646%, 41.453552%, 73.010254%)" offset="0.917969"/><stop stop-opacity="1" stop-color="rgb(94.702148%, 41.441345%, 72.895813%)" offset="0.921875"/><stop stop-opacity="1" stop-color="rgb(94.966125%, 41.429138%, 72.781372%)" offset="0.925781"/><stop stop-opacity="1" stop-color="rgb(95.231628%, 41.416931%, 72.666931%)" offset="0.929688"/><stop stop-opacity="1" stop-color="rgb(95.495605%, 41.404724%, 72.550964%)" offset="0.933594"/><stop stop-opacity="1" stop-color="rgb(95.761108%, 41.392517%, 72.436523%)" offset="0.9375"/><stop stop-opacity="1" stop-color="rgb(96.026611%, 41.38031%, 72.322083%)" offset="0.941406"/><stop stop-opacity="1" stop-color="rgb(96.292114%, 41.368103%, 72.207642%)" offset="0.945312"/><stop stop-opacity="1" stop-color="rgb(96.556091%, 41.355896%, 72.091675%)" offset="0.949219"/><stop stop-opacity="1" stop-color="rgb(96.821594%, 41.345215%, 71.977234%)" offset="0.953125"/><stop stop-opacity="1" stop-color="rgb(97.085571%, 41.333008%, 71.862793%)" offset="0.957031"/><stop stop-opacity="1" stop-color="rgb(97.351074%, 41.320801%, 71.748352%)" offset="0.960938"/><stop stop-opacity="1" stop-color="rgb(97.615051%, 41.308594%, 71.632385%)" offset="0.964844"/><stop stop-opacity="1" stop-color="rgb(97.880554%, 41.296387%, 71.517944%)" offset="0.96875"/><stop stop-opacity="1" stop-color="rgb(98.144531%, 41.28418%, 71.403503%)" offset="0.972656"/><stop stop-opacity="1" stop-color="rgb(98.410034%, 41.271973%, 71.289062%)" offset="0.976562"/><stop stop-opacity="1" stop-color="rgb(98.674011%, 41.259766%, 71.173096%)" offset="0.980469"/><stop stop-opacity="1" stop-color="rgb(98.939514%, 41.247559%, 71.058655%)" offset="0.984375"/><stop stop-opacity="1" stop-color="rgb(99.203491%, 41.235352%, 70.942688%)" offset="0.988281"/><stop stop-opacity="1" stop-color="rgb(99.468994%, 41.223145%, 70.828247%)" offset="0.992188"/><stop stop-opacity="1" stop-color="rgb(99.732971%, 41.210938%, 70.713806%)" offset="0.996094"/><stop stop-opacity="1" stop-color="rgb(99.998474%, 41.19873%, 70.599365%)" offset="1"/></linearGradient><clipPath id="e4d44f20e7"><path d="M 1078.664062 261.445312 L 1185.21875 261.445312 L 1185.21875 368.78125 L 1078.664062 368.78125 Z M 1078.664062 261.445312 " clip-rule="nonzero"/></clipPath><clipPath id="70ec076812"><path d="M 1094.355469 261.445312 L 1169.527344 261.445312 C 1178.195312 261.445312 1185.21875 268.46875 1185.21875 277.136719 L 1185.21875 352.734375 C 1185.21875 361.402344 1178.195312 368.425781 1169.527344 368.425781 L 1094.355469 368.425781 C 1085.691406 368.425781 1078.664062 361.402344 1078.664062 352.734375 L 1078.664062 277.136719 C 1078.664062 268.46875 1085.691406 261.445312 1094.355469 261.445312 Z M 1094.355469 261.445312 " clip-rule="nonzero"/></clipPath><clipPath id="eb44e520c2"><path d="M 1078.664062 378.507812 L 1185.21875 378.507812 L 1185.21875 485.894531 L 1078.664062 485.894531 Z M 1078.664062 378.507812 " clip-rule="nonzero"/></clipPath><clipPath id="12e0e93201"><path d="M 1094.355469 378.507812 L 1169.527344 378.507812 C 1178.195312 378.507812 1185.21875 385.535156 1185.21875 394.199219 L 1185.21875 469.800781 C 1185.21875 478.464844 1178.195312 485.488281 1169.527344 485.488281 L 1094.355469 485.488281 C 1085.691406 485.488281 1078.664062 478.464844 1078.664062 469.800781 L 1078.664062 394.199219 C 1078.664062 385.535156 1085.691406 378.507812 1094.355469 378.507812 Z M 1094.355469 378.507812 " clip-rule="nonzero"/></clipPath><clipPath id="dbbc5b0817"><path d="M 1078.664062 495.574219 L 1185.21875 495.574219 L 1185.21875 602.554688 L 1078.664062 602.554688 Z M 1078.664062 495.574219 " clip-rule="nonzero"/></clipPath><clipPath id="ed89d0110e"><path d="M 1094.355469 495.574219 L 1169.527344 495.574219 C 1178.195312 495.574219 1185.21875 502.597656 1185.21875 511.265625 L 1185.21875 586.863281 C 1185.21875 595.53125 1178.195312 602.554688 1169.527344 602.554688 L 1094.355469 602.554688 C 1085.691406 602.554688 1078.664062 595.53125 1078.664062 586.863281 L 1078.664062 511.265625 C 1078.664062 502.597656 1085.691406 495.574219 1094.355469 495.574219 Z M 1094.355469 495.574219 " clip-rule="nonzero"/></clipPath><clipPath id="fa7600a6a4"><path d="M 1195.941406 378.507812 L 1302.496094 378.507812 L 1302.496094 485.894531 L 1195.941406 485.894531 Z M 1195.941406 378.507812 " clip-rule="nonzero"/></clipPath><clipPath id="326aaab4ba"><path d="M 1211.632812 378.507812 L 1286.804688 378.507812 C 1295.472656 378.507812 1302.496094 385.535156 1302.496094 394.199219 L 1302.496094 469.800781 C 1302.496094 478.464844 1295.472656 485.488281 1286.804688 485.488281 L 1211.632812 485.488281 C 1202.96875 485.488281 1195.941406 478.464844 1195.941406 469.800781 L 1195.941406 394.199219 C 1195.941406 385.535156 1202.96875 378.507812 1211.632812 378.507812 Z M 1211.632812 378.507812 " clip-rule="nonzero"/></clipPath><clipPath id="f5f9d7f5c4"><path d="M 1195.941406 495.574219 L 1302.496094 495.574219 L 1302.496094 602.554688 L 1195.941406 602.554688 Z M 1195.941406 495.574219 " clip-rule="nonzero"/></clipPath><clipPath id="5a6a78a92c"><path d="M 1211.632812 495.574219 L 1286.804688 495.574219 C 1295.472656 495.574219 1302.496094 502.597656 1302.496094 511.265625 L 1302.496094 586.863281 C 1302.496094 595.53125 1295.472656 602.554688 1286.804688 602.554688 L 1211.632812 602.554688 C 1202.96875 602.554688 1195.941406 595.53125 1195.941406 586.863281 L 1195.941406 511.265625 C 1195.941406 502.597656 1202.96875 495.574219 1211.632812 495.574219 Z M 1211.632812 495.574219 " clip-rule="nonzero"/></clipPath><clipPath id="8c388f7bca"><path d="M 1313.21875 495.574219 L 1419.773438 495.574219 L 1419.773438 602.554688 L 1313.21875 602.554688 Z M 1313.21875 495.574219 " clip-rule="nonzero"/></clipPath><clipPath id="eb592f62f7"><path d="M 1328.910156 495.574219 L 1404.082031 495.574219 C 1412.75 495.574219 1419.773438 502.597656 1419.773438 511.265625 L 1419.773438 586.863281 C 1419.773438 595.53125 1412.75 602.554688 1404.082031 602.554688 L 1328.910156 602.554688 C 1320.246094 602.554688 1313.21875 595.53125 1313.21875 586.863281 L 1313.21875 511.265625 C 1313.21875 502.597656 1320.246094 495.574219 1328.910156 495.574219 Z M 1328.910156 495.574219 " clip-rule="nonzero"/></clipPath></defs><rect x="-518.4" width="6220.8" fill="#ffffff" y="-86.399999" height="1036.79999" fill-opacity="1"/><rect x="-518.4" fill="url(#566d5481ec)" width="6220.8" y="-86.399999" height="1036.79999"/><g clip-path="url(#e4d44f20e7)"><g clip-path="url(#70ec076812)"><path fill="#ffffff" d="M 1078.664062 261.445312 L 1185.21875 261.445312 L 1185.21875 368.414062 L 1078.664062 368.414062 Z M 1078.664062 261.445312 " fill-opacity="1" fill-rule="nonzero"/></g></g><g clip-path="url(#eb44e520c2)"><g clip-path="url(#12e0e93201)"><path fill="#ffffff" d="M 1078.664062 378.507812 L 1185.21875 378.507812 L 1185.21875 485.480469 L 1078.664062 485.480469 Z M 1078.664062 378.507812 " fill-opacity="1" fill-rule="nonzero"/></g></g><g clip-path="url(#dbbc5b0817)"><g clip-path="url(#ed89d0110e)"><path fill="#ffffff" d="M 1078.664062 495.574219 L 1185.21875 495.574219 L 1185.21875 602.542969 L 1078.664062 602.542969 Z M 1078.664062 495.574219 " fill-opacity="1" fill-rule="nonzero"/></g></g><g clip-path="url(#fa7600a6a4)"><g clip-path="url(#326aaab4ba)"><path fill="#ffffff" d="M 1195.941406 378.507812 L 1302.496094 378.507812 L 1302.496094 485.480469 L 1195.941406 485.480469 Z M 1195.941406 378.507812 " fill-opacity="1" fill-rule="nonzero"/></g></g><g clip-path="url(#f5f9d7f5c4)"><g clip-path="url(#5a6a78a92c)"><path fill="#ffffff" d="M 1195.941406 495.574219 L 1302.496094 495.574219 L 1302.496094 602.542969 L 1195.941406 602.542969 Z M 1195.941406 495.574219 " fill-opacity="1" fill-rule="nonzero"/></g></g><g clip-path="url(#8c388f7bca)"><g clip-path="url(#eb592f62f7)"><path fill="#ffffff" d="M 1313.21875 495.574219 L 1419.773438 495.574219 L 1419.773438 602.542969 L 1313.21875 602.542969 Z M 1313.21875 495.574219 " fill-opacity="1" fill-rule="nonzero"/></g></g><g fill="#ffffff" fill-opacity="1"><g transform="translate(1471.33459, 593.657221)"><g><path d="M 24.578125 -16.796875 L 24.578125 -283.015625 C 24.578125 -288.472656 27.171875 -292.566406 32.359375 -295.296875 C 37.546875 -298.035156 43.820312 -299.40625 51.1875 -299.40625 C 58.5625 -299.40625 64.84375 -298.035156 70.03125 -295.296875 C 75.21875 -292.566406 77.8125 -288.472656 77.8125 -283.015625 L 77.8125 -176.125 L 169.96875 -176.125 L 169.96875 -283.015625 C 169.96875 -288.472656 172.5625 -292.566406 177.75 -295.296875 C 182.9375 -298.035156 189.21875 -299.40625 196.59375 -299.40625 C 203.96875 -299.40625 210.25 -298.035156 215.4375 -295.296875 C 220.625 -292.566406 223.21875 -288.472656 223.21875 -283.015625 L 223.21875 -16.796875 C 223.21875 -11.609375 220.554688 -7.507812 215.234375 -4.5 C 209.910156 -1.5 203.695312 0 196.59375 0 C 189.21875 0 182.9375 -1.5 177.75 -4.5 C 172.5625 -7.507812 169.96875 -11.609375 169.96875 -16.796875 L 169.96875 -134.34375 L 77.8125 -134.34375 L 77.8125 -16.796875 C 77.8125 -11.609375 75.148438 -7.507812 69.828125 -4.5 C 64.503906 -1.5 58.296875 0 51.203125 0 C 43.828125 0 37.546875 -1.5 32.359375 -4.5 C 27.171875 -7.507812 24.578125 -11.609375 24.578125 -16.796875 Z M 24.578125 -16.796875 "/></g></g></g><g fill="#ffffff" fill-opacity="1"><g transform="translate(1719.129307, 593.657221)"><g><path d="M 13.109375 -80.28125 L 13.109375 -115.09375 C 13.109375 -137.476562 21.84375 -156.722656 39.3125 -172.828125 C 56.789062 -188.941406 77.953125 -197 102.796875 -197 C 126.015625 -197 145.878906 -189.695312 162.390625 -175.09375 C 178.910156 -160.488281 187.171875 -142.125 187.171875 -120 C 187.171875 -111.8125 186.144531 -105.054688 184.09375 -99.734375 C 182.050781 -94.410156 178.914062 -90.65625 174.6875 -88.46875 C 170.457031 -86.28125 166.566406 -84.910156 163.015625 -84.359375 C 159.460938 -83.816406 154.820312 -83.546875 149.09375 -83.546875 L 65.9375 -83.546875 L 65.9375 -77.40625 C 65.9375 -65.664062 70.304688 -56.175781 79.046875 -48.9375 C 87.785156 -41.707031 99.390625 -38.09375 113.859375 -38.09375 C 124.234375 -38.09375 134.472656 -40.6875 144.578125 -45.875 C 154.679688 -51.0625 161.234375 -53.65625 164.234375 -53.65625 C 169.972656 -53.65625 174.753906 -50.992188 178.578125 -45.671875 C 182.398438 -40.347656 184.3125 -35.226562 184.3125 -30.3125 C 184.3125 -22.664062 177.414062 -15.085938 163.625 -7.578125 C 149.832031 -0.0664062 132.695312 3.6875 112.21875 3.6875 C 83.007812 3.6875 59.1875 -4.023438 40.75 -19.453125 C 22.320312 -34.878906 13.109375 -55.15625 13.109375 -80.28125 Z M 65.9375 -114.6875 L 125.734375 -114.6875 C 130.109375 -114.6875 133.179688 -115.4375 134.953125 -116.9375 C 136.734375 -118.4375 137.625 -121.367188 137.625 -125.734375 C 137.625 -135.296875 134.140625 -143.078125 127.171875 -149.078125 C 120.210938 -155.085938 111.679688 -158.09375 101.578125 -158.09375 C 92.015625 -158.09375 83.679688 -155.15625 76.578125 -149.28125 C 69.484375 -143.414062 65.9375 -135.707031 65.9375 -126.15625 Z M 65.9375 -114.6875 "/></g></g></g><g fill="#ffffff" fill-opacity="1"><g transform="translate(1917.365075, 593.657221)"><g><path d="M 9.015625 -50.78125 C 9.015625 -72.90625 17.203125 -88.472656 33.578125 -97.484375 C 49.960938 -106.492188 73.582031 -111 104.4375 -111 L 121.234375 -111 L 121.234375 -116.3125 C 121.234375 -126.414062 118.296875 -135.222656 112.421875 -142.734375 C 106.554688 -150.242188 97.476562 -154 85.1875 -154 C 72.90625 -154 62.394531 -151.878906 53.65625 -147.640625 C 44.914062 -143.410156 39.863281 -141.296875 38.5 -141.296875 C 33.039062 -141.296875 28.671875 -144.023438 25.390625 -149.484375 C 22.117188 -154.953125 20.484375 -160.960938 20.484375 -167.515625 C 20.484375 -175.429688 27.515625 -182.320312 41.578125 -188.1875 C 55.640625 -194.0625 70.453125 -197 86.015625 -197 C 115.773438 -197 137.890625 -189.421875 152.359375 -174.265625 C 166.835938 -159.117188 174.078125 -140.078125 174.078125 -117.140625 L 174.078125 -16.796875 C 174.078125 -12.148438 171.617188 -8.1875 166.703125 -4.90625 C 161.785156 -1.632812 155.640625 0 148.265625 0 C 141.441406 0 135.773438 -1.632812 131.265625 -4.90625 C 126.765625 -8.1875 124.515625 -12.148438 124.515625 -16.796875 L 124.515625 -28.671875 C 105.671875 -7.097656 84.914062 3.6875 62.25 3.6875 C 46.6875 3.6875 33.921875 -0.953125 23.953125 -10.234375 C 13.992188 -19.523438 9.015625 -33.039062 9.015625 -50.78125 Z M 61.84375 -57.75 C 61.84375 -50.375 63.820312 -44.84375 67.78125 -41.15625 C 71.738281 -37.476562 76.992188 -35.640625 83.546875 -35.640625 C 92.285156 -35.640625 100.75 -39.734375 108.9375 -47.921875 C 117.132812 -56.109375 121.234375 -65.117188 121.234375 -74.953125 L 121.234375 -83.546875 L 115.09375 -83.546875 C 98.4375 -83.546875 85.394531 -81.835938 75.96875 -78.421875 C 66.550781 -75.015625 61.84375 -68.125 61.84375 -57.75 Z M 61.84375 -57.75 "/></g></g></g><g fill="#ffffff" fill-opacity="1"><g transform="translate(2110.276315, 593.657221)"><g><path d="M 13.515625 -80.28125 L 13.515625 -113.859375 C 13.515625 -136.523438 20.679688 -156.046875 35.015625 -172.421875 C 49.347656 -188.804688 66.484375 -197 86.421875 -197 C 98.429688 -197 109.007812 -193.992188 118.15625 -187.984375 C 127.3125 -181.984375 134.34375 -174.613281 139.25 -165.875 L 139.25 -291.625 C 139.25 -296.53125 141.773438 -300.484375 146.828125 -303.484375 C 151.878906 -306.492188 158.226562 -308 165.875 -308 C 173.519531 -308 179.800781 -306.492188 184.71875 -303.484375 C 189.632812 -300.484375 192.09375 -296.53125 192.09375 -291.625 L 192.09375 -16.796875 C 192.09375 -12.421875 189.566406 -8.523438 184.515625 -5.109375 C 179.460938 -1.703125 173.25 0 165.875 0 C 159.59375 0 154.0625 -1.773438 149.28125 -5.328125 C 144.507812 -8.878906 142.125 -12.703125 142.125 -16.796875 L 142.125 -28.671875 C 137.757812 -19.929688 130.316406 -12.351562 119.796875 -5.9375 C 109.285156 0.476562 97.75 3.6875 85.1875 3.6875 C 66.351562 3.6875 49.695312 -4.773438 35.21875 -21.703125 C 20.75 -38.628906 13.515625 -58.15625 13.515625 -80.28125 Z M 66.359375 -80.28125 C 66.359375 -70.71875 69.90625 -62.046875 77 -54.265625 C 84.101562 -46.484375 92.429688 -42.59375 101.984375 -42.59375 C 111.535156 -42.59375 120.132812 -46.347656 127.78125 -53.859375 C 135.425781 -61.367188 139.25 -67.71875 139.25 -72.90625 L 139.25 -113.859375 C 139.25 -124.785156 135.492188 -133.660156 127.984375 -140.484375 C 120.484375 -147.304688 111.953125 -150.71875 102.390625 -150.71875 C 92.566406 -150.71875 84.101562 -146.960938 77 -139.453125 C 69.90625 -131.953125 66.359375 -123.421875 66.359375 -113.859375 Z M 66.359375 -80.28125 "/></g></g></g><g fill="#ffffff" fill-opacity="1"><g transform="translate(2323.256825, 593.657221)"><g><path d="M 24.171875 -16.796875 L 24.171875 -291.625 C 24.171875 -296.53125 26.554688 -300.484375 31.328125 -303.484375 C 36.109375 -306.492188 42.457031 -308 50.375 -308 C 57.75 -308 64.03125 -306.492188 69.21875 -303.484375 C 74.40625 -300.484375 77 -296.53125 77 -291.625 L 77 -16.796875 C 77 -12.703125 74.335938 -8.878906 69.015625 -5.328125 C 63.691406 -1.773438 57.476562 0 50.375 0 C 43 0 36.785156 -1.703125 31.734375 -5.109375 C 26.691406 -8.523438 24.171875 -12.421875 24.171875 -16.796875 Z M 24.171875 -16.796875 "/></g></g></g><g fill="#ffffff" fill-opacity="1"><g transform="translate(2424.422534, 593.657221)"><g><path d="M 13.109375 -80.28125 L 13.109375 -115.09375 C 13.109375 -137.476562 21.84375 -156.722656 39.3125 -172.828125 C 56.789062 -188.941406 77.953125 -197 102.796875 -197 C 126.015625 -197 145.878906 -189.695312 162.390625 -175.09375 C 178.910156 -160.488281 187.171875 -142.125 187.171875 -120 C 187.171875 -111.8125 186.144531 -105.054688 184.09375 -99.734375 C 182.050781 -94.410156 178.914062 -90.65625 174.6875 -88.46875 C 170.457031 -86.28125 166.566406 -84.910156 163.015625 -84.359375 C 159.460938 -83.816406 154.820312 -83.546875 149.09375 -83.546875 L 65.9375 -83.546875 L 65.9375 -77.40625 C 65.9375 -65.664062 70.304688 -56.175781 79.046875 -48.9375 C 87.785156 -41.707031 99.390625 -38.09375 113.859375 -38.09375 C 124.234375 -38.09375 134.472656 -40.6875 144.578125 -45.875 C 154.679688 -51.0625 161.234375 -53.65625 164.234375 -53.65625 C 169.972656 -53.65625 174.753906 -50.992188 178.578125 -45.671875 C 182.398438 -40.347656 184.3125 -35.226562 184.3125 -30.3125 C 184.3125 -22.664062 177.414062 -15.085938 163.625 -7.578125 C 149.832031 -0.0664062 132.695312 3.6875 112.21875 3.6875 C 83.007812 3.6875 59.1875 -4.023438 40.75 -19.453125 C 22.320312 -34.878906 13.109375 -55.15625 13.109375 -80.28125 Z M 65.9375 -114.6875 L 125.734375 -114.6875 C 130.109375 -114.6875 133.179688 -115.4375 134.953125 -116.9375 C 136.734375 -118.4375 137.625 -121.367188 137.625 -125.734375 C 137.625 -135.296875 134.140625 -143.078125 127.171875 -149.078125 C 120.210938 -155.085938 111.679688 -158.09375 101.578125 -158.09375 C 92.015625 -158.09375 83.679688 -155.15625 76.578125 -149.28125 C 69.484375 -143.414062 65.9375 -135.707031 65.9375 -126.15625 Z M 65.9375 -114.6875 "/></g></g></g><g fill="#ffffff" fill-opacity="1"><g transform="translate(2622.658317, 593.657221)"><g><path d="M 9.421875 -31.53125 C 9.421875 -36.445312 11.191406 -41.566406 14.734375 -46.890625 C 18.285156 -52.222656 22.382812 -54.890625 27.03125 -54.890625 C 30.03125 -54.890625 33.78125 -53.382812 38.28125 -50.375 C 42.789062 -47.375 48.734375 -44.300781 56.109375 -41.15625 C 63.484375 -38.019531 72.222656 -36.453125 82.328125 -36.453125 C 102.253906 -36.453125 112.21875 -42.320312 112.21875 -54.0625 C 112.21875 -60.613281 108.875 -65.800781 102.1875 -69.625 C 95.5 -73.445312 87.441406 -76.585938 78.015625 -79.046875 C 68.597656 -81.503906 59.109375 -84.4375 49.546875 -87.84375 C 39.992188 -91.257812 31.875 -96.992188 25.1875 -105.046875 C 18.5 -113.109375 15.15625 -123.421875 15.15625 -135.984375 C 15.15625 -152.640625 21.023438 -166.972656 32.765625 -178.984375 C 44.503906 -190.992188 63.070312 -197 88.46875 -197 C 105.394531 -197 120.476562 -194.40625 133.71875 -189.21875 C 146.96875 -184.03125 153.59375 -177.753906 153.59375 -170.390625 C 153.59375 -165.742188 151.75 -160.347656 148.0625 -154.203125 C 144.375 -148.054688 139.800781 -144.984375 134.34375 -144.984375 C 132.15625 -144.984375 126.210938 -146.960938 116.515625 -150.921875 C 106.828125 -154.890625 97.75 -156.875 89.28125 -156.875 C 80 -156.875 72.898438 -154.960938 67.984375 -151.140625 C 63.078125 -147.316406 60.625 -143.082031 60.625 -138.4375 C 60.625 -133.789062 63.078125 -129.96875 67.984375 -126.96875 C 72.898438 -123.96875 78.972656 -121.644531 86.203125 -120 C 93.441406 -118.363281 101.296875 -116.113281 109.765625 -113.25 C 118.234375 -110.382812 126.082031 -107.039062 133.3125 -103.21875 C 140.550781 -99.394531 146.628906 -93.453125 151.546875 -85.390625 C 156.460938 -77.335938 158.921875 -67.578125 158.921875 -56.109375 C 158.921875 -37.546875 152.296875 -22.9375 139.046875 -12.28125 C 125.804688 -1.632812 107.304688 3.6875 83.546875 3.6875 C 63.066406 3.6875 45.59375 0.140625 31.125 -6.953125 C 16.65625 -14.054688 9.421875 -22.25 9.421875 -31.53125 Z M 9.421875 -31.53125 "/></g></g></g><g fill="#ffffff" fill-opacity="1"><g transform="translate(2792.223626, 593.657221)"><g><path d="M 9.421875 -31.53125 C 9.421875 -36.445312 11.191406 -41.566406 14.734375 -46.890625 C 18.285156 -52.222656 22.382812 -54.890625 27.03125 -54.890625 C 30.03125 -54.890625 33.78125 -53.382812 38.28125 -50.375 C 42.789062 -47.375 48.734375 -44.300781 56.109375 -41.15625 C 63.484375 -38.019531 72.222656 -36.453125 82.328125 -36.453125 C 102.253906 -36.453125 112.21875 -42.320312 112.21875 -54.0625 C 112.21875 -60.613281 108.875 -65.800781 102.1875 -69.625 C 95.5 -73.445312 87.441406 -76.585938 78.015625 -79.046875 C 68.597656 -81.503906 59.109375 -84.4375 49.546875 -87.84375 C 39.992188 -91.257812 31.875 -96.992188 25.1875 -105.046875 C 18.5 -113.109375 15.15625 -123.421875 15.15625 -135.984375 C 15.15625 -152.640625 21.023438 -166.972656 32.765625 -178.984375 C 44.503906 -190.992188 63.070312 -197 88.46875 -197 C 105.394531 -197 120.476562 -194.40625 133.71875 -189.21875 C 146.96875 -184.03125 153.59375 -177.753906 153.59375 -170.390625 C 153.59375 -165.742188 151.75 -160.347656 148.0625 -154.203125 C 144.375 -148.054688 139.800781 -144.984375 134.34375 -144.984375 C 132.15625 -144.984375 126.210938 -146.960938 116.515625 -150.921875 C 106.828125 -154.890625 97.75 -156.875 89.28125 -156.875 C 80 -156.875 72.898438 -154.960938 67.984375 -151.140625 C 63.078125 -147.316406 60.625 -143.082031 60.625 -138.4375 C 60.625 -133.789062 63.078125 -129.96875 67.984375 -126.96875 C 72.898438 -123.96875 78.972656 -121.644531 86.203125 -120 C 93.441406 -118.363281 101.296875 -116.113281 109.765625 -113.25 C 118.234375 -110.382812 126.082031 -107.039062 133.3125 -103.21875 C 140.550781 -99.394531 146.628906 -93.453125 151.546875 -85.390625 C 156.460938 -77.335938 158.921875 -67.578125 158.921875 -56.109375 C 158.921875 -37.546875 152.296875 -22.9375 139.046875 -12.28125 C 125.804688 -1.632812 107.304688 3.6875 83.546875 3.6875 C 63.066406 3.6875 45.59375 0.140625 31.125 -6.953125 C 16.65625 -14.054688 9.421875 -22.25 9.421875 -31.53125 Z M 9.421875 -31.53125 "/></g></g></g><g fill="#ffffff" fill-opacity="1"><g transform="translate(2961.788934, 593.657221)"><g/></g></g><g fill="#ffffff" fill-opacity="1"><g transform="translate(3043.704476, 593.657221)"><g><path d="M 24.578125 -16.390625 L 24.578125 -282.609375 C 24.578125 -287.796875 26.894531 -291.890625 31.53125 -294.890625 C 36.175781 -297.898438 41.640625 -299.40625 47.921875 -299.40625 L 126.96875 -299.40625 C 181.851562 -299.40625 209.296875 -275.375 209.296875 -227.3125 C 209.296875 -194 197.691406 -172.289062 174.484375 -162.1875 C 188.410156 -156.726562 198.921875 -149.015625 206.015625 -139.046875 C 213.117188 -129.085938 216.671875 -114.550781 216.671875 -95.4375 L 216.671875 -86.828125 C 216.671875 -56.523438 209.296875 -34.476562 194.546875 -20.6875 C 179.804688 -6.894531 159.875 0 134.75 0 L 47.921875 0 C 41.097656 0 35.5 -1.632812 31.125 -4.90625 C 26.757812 -8.1875 24.578125 -12.015625 24.578125 -16.390625 Z M 77.40625 -46.6875 L 123.6875 -46.6875 C 150.175781 -46.6875 163.421875 -61.566406 163.421875 -91.328125 L 163.421875 -97.890625 C 163.421875 -113.179688 160.078125 -124.238281 153.390625 -131.0625 C 146.703125 -137.882812 136.800781 -141.296875 123.6875 -141.296875 L 77.40625 -141.296875 Z M 77.40625 -183.078125 L 123.28125 -183.078125 C 133.925781 -183.078125 142.046875 -186.21875 147.640625 -192.5 C 153.242188 -198.78125 156.046875 -207.382812 156.046875 -218.3125 C 156.046875 -228.957031 153.109375 -237.347656 147.234375 -243.484375 C 141.367188 -249.628906 133.25 -252.703125 122.875 -252.703125 L 77.40625 -252.703125 Z M 77.40625 -183.078125 "/></g></g></g><g fill="#ffffff" fill-opacity="1"><g transform="translate(3273.887274, 593.657221)"><g><path d="M 24.171875 -16.796875 L 24.171875 -291.625 C 24.171875 -296.53125 26.554688 -300.484375 31.328125 -303.484375 C 36.109375 -306.492188 42.457031 -308 50.375 -308 C 57.75 -308 64.03125 -306.492188 69.21875 -303.484375 C 74.40625 -300.484375 77 -296.53125 77 -291.625 L 77 -16.796875 C 77 -12.703125 74.335938 -8.878906 69.015625 -5.328125 C 63.691406 -1.773438 57.476562 0 50.375 0 C 43 0 36.785156 -1.703125 31.734375 -5.109375 C 26.691406 -8.523438 24.171875 -12.421875 24.171875 -16.796875 Z M 24.171875 -16.796875 "/></g></g></g><g fill="#ffffff" fill-opacity="1"><g transform="translate(3375.053051, 593.657221)"><g><path d="M 9.015625 -50.78125 C 9.015625 -72.90625 17.203125 -88.472656 33.578125 -97.484375 C 49.960938 -106.492188 73.582031 -111 104.4375 -111 L 121.234375 -111 L 121.234375 -116.3125 C 121.234375 -126.414062 118.296875 -135.222656 112.421875 -142.734375 C 106.554688 -150.242188 97.476562 -154 85.1875 -154 C 72.90625 -154 62.394531 -151.878906 53.65625 -147.640625 C 44.914062 -143.410156 39.863281 -141.296875 38.5 -141.296875 C 33.039062 -141.296875 28.671875 -144.023438 25.390625 -149.484375 C 22.117188 -154.953125 20.484375 -160.960938 20.484375 -167.515625 C 20.484375 -175.429688 27.515625 -182.320312 41.578125 -188.1875 C 55.640625 -194.0625 70.453125 -197 86.015625 -197 C 115.773438 -197 137.890625 -189.421875 152.359375 -174.265625 C 166.835938 -159.117188 174.078125 -140.078125 174.078125 -117.140625 L 174.078125 -16.796875 C 174.078125 -12.148438 171.617188 -8.1875 166.703125 -4.90625 C 161.785156 -1.632812 155.640625 0 148.265625 0 C 141.441406 0 135.773438 -1.632812 131.265625 -4.90625 C 126.765625 -8.1875 124.515625 -12.148438 124.515625 -16.796875 L 124.515625 -28.671875 C 105.671875 -7.097656 84.914062 3.6875 62.25 3.6875 C 46.6875 3.6875 33.921875 -0.953125 23.953125 -10.234375 C 13.992188 -19.523438 9.015625 -33.039062 9.015625 -50.78125 Z M 61.84375 -57.75 C 61.84375 -50.375 63.820312 -44.84375 67.78125 -41.15625 C 71.738281 -37.476562 76.992188 -35.640625 83.546875 -35.640625 C 92.285156 -35.640625 100.75 -39.734375 108.9375 -47.921875 C 117.132812 -56.109375 121.234375 -65.117188 121.234375 -74.953125 L 121.234375 -83.546875 L 115.09375 -83.546875 C 98.4375 -83.546875 85.394531 -81.835938 75.96875 -78.421875 C 66.550781 -75.015625 61.84375 -68.125 61.84375 -57.75 Z M 61.84375 -57.75 "/></g></g></g><g fill="#ffffff" fill-opacity="1"><g transform="translate(3567.964354, 593.657221)"><g><path d="M 8.59375 -18.84375 C 8.59375 -25.9375 11.597656 -33.035156 17.609375 -40.140625 L 98.296875 -151.546875 L 27.4375 -151.546875 C 23.070312 -151.546875 19.382812 -153.660156 16.375 -157.890625 C 13.375 -162.117188 11.875 -167.238281 11.875 -173.25 C 11.875 -179.257812 13.304688 -184.3125 16.171875 -188.40625 C 19.046875 -192.5 22.800781 -194.546875 27.4375 -194.546875 L 147.859375 -194.546875 C 152.773438 -194.546875 156.867188 -192.972656 160.140625 -189.828125 C 163.421875 -186.691406 165.0625 -182.257812 165.0625 -176.53125 C 165.0625 -168.882812 162.332031 -161.507812 156.875 -154.40625 L 75.765625 -43 L 156.046875 -43 C 160.421875 -43 164.109375 -40.882812 167.109375 -36.65625 C 170.109375 -32.425781 171.609375 -27.304688 171.609375 -21.296875 C 171.609375 -15.285156 170.175781 -10.234375 167.3125 -6.140625 C 164.445312 -2.046875 160.691406 0 156.046875 0 L 26.625 0 C 20.613281 0 16.101562 -1.84375 13.09375 -5.53125 C 10.09375 -9.21875 8.59375 -13.65625 8.59375 -18.84375 Z M 8.59375 -18.84375 "/></g></g></g><g fill="#ffffff" fill-opacity="1"><g transform="translate(3746.950034, 593.657221)"><g><path d="M 13.109375 -80.28125 L 13.109375 -113.859375 C 13.109375 -136.253906 21.84375 -155.707031 39.3125 -172.21875 C 56.789062 -188.738281 77.679688 -197 101.984375 -197 C 125.742188 -197 146.492188 -188.804688 164.234375 -172.421875 C 181.984375 -156.046875 190.859375 -136.523438 190.859375 -113.859375 L 190.859375 -80.28125 C 190.859375 -58.15625 181.984375 -38.628906 164.234375 -21.703125 C 146.492188 -4.773438 125.742188 3.6875 101.984375 3.6875 C 78.234375 3.6875 57.484375 -4.773438 39.734375 -21.703125 C 21.984375 -38.628906 13.109375 -58.15625 13.109375 -80.28125 Z M 65.9375 -80.28125 C 65.9375 -70.445312 69.484375 -61.707031 76.578125 -54.0625 C 83.679688 -46.414062 92.148438 -42.59375 101.984375 -42.59375 C 111.535156 -42.59375 119.929688 -46.414062 127.171875 -54.0625 C 134.410156 -61.707031 138.03125 -70.445312 138.03125 -80.28125 L 138.03125 -113.859375 C 138.03125 -123.140625 134.410156 -131.601562 127.171875 -139.25 C 119.929688 -146.894531 111.535156 -150.71875 101.984375 -150.71875 C 92.148438 -150.71875 83.679688 -146.960938 76.578125 -139.453125 C 69.484375 -131.953125 65.9375 -123.421875 65.9375 -113.859375 Z M 65.9375 -80.28125 "/></g></g></g><g fill="#ffffff" fill-opacity="1"><g transform="translate(3950.919788, 593.657221)"><g><path d="M 20.484375 -16.796875 L 20.484375 -178.171875 C 20.484375 -183.078125 22.867188 -187.03125 27.640625 -190.03125 C 32.421875 -193.039062 38.632812 -194.546875 46.28125 -194.546875 C 53.101562 -194.546875 58.765625 -193.039062 63.265625 -190.03125 C 67.773438 -187.03125 70.03125 -183.078125 70.03125 -178.171875 L 70.03125 -161.375 C 74.40625 -170.925781 81.234375 -179.25 90.515625 -186.34375 C 99.796875 -193.445312 109.765625 -197 120.421875 -197 L 133.109375 -197 C 138.023438 -197 142.460938 -194.675781 146.421875 -190.03125 C 150.378906 -185.394531 152.359375 -180.078125 152.359375 -174.078125 C 152.359375 -167.796875 150.378906 -162.332031 146.421875 -157.6875 C 142.460938 -153.039062 138.023438 -150.71875 133.109375 -150.71875 L 120.421875 -150.71875 C 107.859375 -150.71875 96.863281 -145.117188 87.4375 -133.921875 C 78.019531 -122.734375 73.3125 -108.128906 73.3125 -90.109375 L 73.3125 -16.796875 C 73.3125 -12.703125 70.582031 -8.878906 65.125 -5.328125 C 59.664062 -1.773438 53.382812 0 46.28125 0 C 38.90625 0 32.757812 -1.703125 27.84375 -5.109375 C 22.9375 -8.523438 20.484375 -12.421875 20.484375 -16.796875 Z M 20.484375 -16.796875 "/></g></g></g></svg>